<?xml version="1.0" encoding="utf-8"?>
<!-- Generator: Adobe Illustrator 16.0.0, SVG Export Plug-In . SVG Version: 6.00 Build 0)  -->
<!DOCTYPE svg PUBLIC "-//W3C//DTD SVG 1.1//EN" "http://www.w3.org/Graphics/SVG/1.1/DTD/svg11.dtd">
<svg version="1.1" id="Layer_1" xmlns="http://www.w3.org/2000/svg" xmlns:xlink="http://www.w3.org/1999/xlink" x="0px" y="0px"
	 width="1920px" height="1080px" viewBox="0 0 1920 1080" enable-background="new 0 0 1920 1080" xml:space="preserve">
<g>
	<g>
		<g>
			<g>
				<path fill="#F7BD93" d="M977.932,380.787v255.57l-124.598-49.603l-7.534-15.774l-20.392-100.015l-63.404,162.723v134.334
					c0,5.105-4.057,9.154-9.153,9.154h-0.114c-4.752,0-8.81-3.705-9.162-8.459l-4.641-55.859h-7.066l-4.752,55.859
					c-0.342,4.866-4.399,8.459-9.153,8.459h-0.922c-4.754,0-8.698-3.593-9.165-8.459l-4.638-55.859h-4.98l-6.486,56.202
					c-0.58,4.648-4.41,8.116-9.164,8.116h-0.457c-4.992,0-9.162-4.049-9.162-9.154v-55.164l2.199-16.813l1.744-13.562l1.742-13.906
					c1.267-9.974,5.678-19.126,12.401-26.306c0,0,0.116,0,0.116-0.125c4.98-5.676,11.476-10.086,19-12.742h0.237l48.454-111.036
					l3.236-26.316l1.162-9.028l1.038-8.697l1.163-9.049l1.048-8.686l1.151-9.163l5.563-44.964
					c5.687-22.363,25.963-38.137,49.032-38.137h28.86L977.932,380.787z"/>
				<path fill="#F7BD93" d="M696.346,638.641c0,0-32.055,37.928-33.704,40.396c-1.174,1.776-13.709,31.3-20.775,48.028
					c-2.283,5.396,1.702,11.32,7.554,11.32h0.176c2.969,0,5.698-1.598,7.15-4.192l7.659-13.729
					c8.602-15.43,1.598-25.103,19.271-25.372l25.03-0.395L696.346,638.641z"/>
			</g>
			<path fill="#F7BD93" d="M839.283,655.67l56.472,209.9c0,0-33.301,29.927-77.808,42.15c-11.81,3.25-0.436,23.806,11.821,23.806
				h65.667h30.29c19.79,0,15.348-38.146,15.348-57.925V655.67H839.283z"/>
		</g>
		<g>
			<g>
				<path fill="#F7BD93" d="M977.901,380.809v255.56l124.6-49.572l7.503-15.836l20.371-99.942l63.373,162.726v134.259
					c0,5.065,4.1,9.175,9.162,9.175h0.199c4.751,0,8.768-3.694,9.099-8.446l4.619-55.852h7.118l4.69,55.852
					c0.395,4.814,4.411,8.446,9.165,8.446h0.922c4.743,0,8.77-3.632,9.163-8.446l4.681-55.852h4.949l6.528,56.182
					c0.528,4.617,4.421,8.116,9.099,8.116h0.468c5.064,0,9.164-4.109,9.164-9.175v-55.123l-3.893-30.343l-1.772-13.969
					c-2.263-17.932-14.426-33.04-31.445-39.112l-0.279-0.104l-48.41-110.961l-14.372-115.894
					c-5.749-22.435-25.954-38.115-49.104-38.115h-28.777L977.901,380.809z"/>
				<path fill="#F7BD93" d="M1256.084,634.843c0,0,32.046,37.917,33.694,40.387c1.174,1.774,13.708,31.299,20.775,48.025
					c2.284,5.396-1.702,11.333-7.554,11.333h-0.178c-2.956,0-5.695-1.598-7.139-4.192l-7.658-13.74
					c-8.614-15.419-1.607-25.102-19.281-25.372l-25.03-0.384L1256.084,634.843z"/>
			</g>
			<path fill="#F7BD93" d="M1116.521,655.67l-56.474,209.9c0,0,33.301,29.927,77.808,42.15c11.81,3.25,0.437,23.806-11.818,23.806
				h-65.668h-30.291c-19.789,0-15.348-38.146-15.348-57.925V655.67H1116.521z"/>
		</g>
	</g>
	<path fill="#EE9403" d="M1145.919,748.162c1.443-11.872-0.154-47.476-0.154-47.476c-3.249-39.299-12.981-77.778-28.859-113.932
		l-6.839-15.774c0,0-21.212-40.325-6.61-100.015c13.209-54.252,20.743-103.274,20.743-103.274l-40.336-15.649
		c0,0-33.145,143.029-99.206,186.841c-70.005,46.478-139.781,27.469-139.781,27.469l-9.506,24.448
		c-14.829,38.373-21.293,79.011-23.992,119.96c-3.029,46.096,22.602,81.543,22.602,81.543l20.984-46.301l21.043,46.301l13.72-57.717
		l28.32,57.717l25.184-57.717l16.874,57.717l20.962-46.301l21.046,46.301l23.949-53.919l18.089,53.919l26.908-46.801l15.17,46.801
		l21.056-46.301l0,0l21.139,46.301C1128.423,792.305,1142.826,773.545,1145.919,748.162z"/>
	<path fill="#F7BD93" d="M985.871,380.83h-2.449c-66.809,0-130.69-51.866-130.69-118.674l9.723-28.164
		c0-66.81,54.159-120.958,120.968-120.958h2.449c66.799,0,120.956,54.148,120.956,120.958l9.726,28.164
		C1116.553,328.964,1052.67,380.83,985.871,380.83z"/>
	<path fill="#522908" d="M984.397,136.488c0,0-19.996,55.445-53.474,55.445c-33.477,0,13.521-49.655,13.521-49.655
		s-45.721,46.842-57.158,67.058c-19.167,33.912-39.246,149.183-39.246,149.183s-0.177-108.026,8.509-159.249
		c13.521-79.78,60.229-79.78,60.229-79.78h-61.007c0,0,3.353-70.296,46.875-53.546c43.512,16.728,66.943,36.818,66.943,36.818
		s-30.126-21.896,3.352-39.403c33.477-17.506,21.761,42.744,21.761,42.744s51.887-66.954,122.181-20.08
		c70.297,46.864,16.21,259.545,16.21,259.545s-6.506-85.042-57.334-139.035C1047.658,176.689,1016.578,141.24,984.397,136.488z"/>
	<path fill="#522908" d="M940.605,217.564h87.761c28.103,0,50.879,10.388,50.879,23.194v0.477c0,12.805-22.776,0.02-50.879,0.02
		h-87.761c-28.091,0-50.879,12.785-50.879-0.02v-0.477C889.727,227.952,912.515,217.564,940.605,217.564z"/>
	<path fill="#522908" d="M1116.553,262.156l-5.118,5.458c-29.688,31.661-13.198,49.624-56.606,49.624l-70.337-7.388l-70.026,7.388
		c-43.407,0-26.918-17.963-56.608-49.624l-5.126-5.458l-11.996,60.001c-12.412,62.034,17.912,124.775,74.238,153.592l1.588,0.82
		c39.184,20.038,85.456,20.692,125.19,1.785l8.313-3.964c58.485-27.853,90.562-91.869,77.86-155.389L1116.553,262.156z"/>
	<path fill="#CE4A00" d="M976.334,666.151c0,0-21.096-11.757-16.032,5.405c5.055,17.165,6.526,15.92,0,25.228
		c-6.538,9.319-13.398,21.864-0.788,25.735c12.608,3.87,14.538-8.686,24.199,0c9.652,8.697,52.551,9.662,39.318-11.591
		c-13.24-21.253-30.634-3.984-20.971-25.652c9.661-21.668,6.298-43.896-6.994-34.225C981.781,660.702,986.1,669.844,976.334,666.151
		z"/>
	<path fill="#CE4A00" d="M919.062,623.593c0,0-7.709,16.937,8.013,9.245c15.721-7.688,14.268-8.353,24.406-6.381
		c10.138,1.95,23.474,3.32,25.03-5.998c1.558-9.317-4.191-9.391,2.554-17.984c6.734-8.592-6.497-35.25-24.761-21.115
		c-18.263,14.143-18.346,1.992-37.109,16.104c-17.58,13.222-27.623,11.217-15.981,17.559
		C912.857,621.372,920.951,616.205,919.062,623.593z"/>
	<path fill="#CE4A00" d="M1018.548,577.084c6.082,15.627-15.46,31.481,4.308,31.649c19.78,0.164,19.78,0.164,21.938,16.447
		c1.836,13.896-1.795,32.555,10.885,21.2c12.681-11.352,13.428-32.044,21.408-25.507c7.97,6.537,29.938-2.055,10.325-22.487
		c-19.613-20.431-40.605-1.287-39.765-25.03C1048.488,549.615,1006.2,545.287,1018.548,577.084z"/>
	<path fill="#CE4A00" d="M1058.304,479.289c0,0-25.714,15.462-10.926,26.088c14.786,10.626,16.271-4.836,15.046,14.487
		c-1.224,19.312,14.228,24.137,13.263,6.756c-1.442-25.955,20.784-38.635,9.91-47.331c-10.876-8.686-1.214-16.292-12.807-13.449
		C1061.2,468.662,1073.756,476.403,1058.304,479.289z"/>
	<path fill="#CE4A00" d="M1101.442,692.124c0,0-15.11-25.901-25.933-11.269c-10.813,14.651,4.617,16.334-14.685,14.858
		c-19.301-1.494-23.4,24.272-6.008,23.536c25.964-1.079,37.42,10.938,46.262,0.176c8.831-10.76,24.335,4.63,21.657-7.004
		C1120.06,700.799,1104.131,707.628,1101.442,692.124z"/>
	<path fill="#CE4A00" d="M837.976,699.369c0,0-14.227,10.293-12.504,19.881c1.712,9.6-15.244,17.33,0,21.19
		c15.233,3.862,26.825-7.73,34.544-3.86c7.732,3.86,26.711-4.545,17.228-16.271c-9.496-11.746-23.878-3.051-27.791-7.887
		C845.529,707.608,845.156,692.674,837.976,699.369z"/>
	<path fill="#CE4A00" d="M852.731,663.753c-1.598-16.853-15.783-34.142-3.279-36.072c12.504-1.93,10.563,19.655,24.084,18.036
		c13.522-1.618,31.382-0.311,33.561,13.522c2.178,13.832,13.771,11.414,25.362,12.141s14.486,8.459,0,24.874
		c-14.486,16.417-3.86,16.739-25.362,13.034c-16.179-2.801,1.951-14.508-17.372-27.063
		C870.415,669.668,854.143,678.594,852.731,663.753z"/>
	<g>
		<path fill="#EE9403" d="M1035.693,799.301c0.757,0.83,1.317,1.266,1.317,1.266S1036.461,800.048,1035.693,799.301z"/>
	</g>
	<g opacity="0.5">
		<path fill="#522908" d="M905.77,524.305c0,0,0,0.498,0,1.432c-0.104,0.913,0.259,2.282-0.291,4.016
			c-0.28,1.795-0.997,3.85-2.159,6.112c-1.234,2.2-3.039,4.483-5.551,6.456c-5.084,3.611-13.024,6.392-21.108,2.47
			c-3.756-1.89-7.056-5.19-8.768-9.372c-0.841-2.106-1.308-4.327-1.401-6.61c-0.031-1.619,0.156-2.137,0.217-3.258
			c0.303-1.184,0.624-2.543,1.122-3.633c2.014-4.317,6.03-7.575,10.555-8.655c2.188-0.54,4.741-0.581,6.744,0
			c2.647,0.623,4.38,1.971,6.071,3.529c3.03,3.279,4.297,8.218,2.75,11.851c-1.411,3.871-5.135,6.942-8.644,6.786
			c-0.55,0.021-0.591,0.208-1.535,0.083l-1.038-0.27c-0.707-0.218-1.317-0.166-2.096-0.799c-0.717-0.488-1.424-1.007-1.994-1.525
			c-0.374-0.644-0.747-1.266-1.099-1.868c-0.696-1.236-0.57-2.449-0.726-3.819c0.353-0.997,0.333-1.931,1.101-2.74
			c0.538-0.893,1.171-1.411,1.868-1.681c0.611-0.394,1.152-0.592,1.659-0.57c0.924-0.094,1.422-0.136,1.422-0.136
			s-0.467,0.146-1.349,0.417c-0.788,0.196-2.095,1.078-2.655,2.396c-0.52,0.489-0.426,1.629-0.603,2.605
			c0.363,0.591,0.323,1.868,1.027,2.594l0.966,1.225c0.435,0.238,0.872,0.425,1.245,0.695c0.59,0.363,3.06,0.902,3.465,0.415
			l1.785-0.446l1.505-1.131c0.623-0.301,0.829-0.861,1.1-1.318c0.239-0.519,0.779-0.664,0.799-1.681
			c0.986-2.865-0.394-5.729-2.282-7.793c-1.04-0.882-2.491-1.774-3.603-1.952c-1.681-0.384-3.082-0.228-4.658,0.114
			c-3.01,0.769-5.646,3.01-6.943,5.864c-0.311,0.685-0.437,1.276-0.717,1.961c-0.073,0.851-0.301,2.283-0.238,2.614
			c0.041,1.682,0.352,3.28,0.934,4.826c1.224,3.02,3.444,5.614,6.216,7.15c2.489,1.4,5.893,2.347,8.955,1.847
			c3.092-0.145,5.863-1.307,8.261-2.636c2.262-1.556,4.161-3.269,5.593-5.074c1.35-1.878,2.305-3.642,2.802-5.24
			c0.747-1.515,0.747-2.988,1.018-3.861C905.667,524.793,905.77,524.305,905.77,524.305z"/>
	</g>
	<g opacity="0.5">
		<path fill="#522908" d="M874.679,474.204c0,0,0,0.498,0,1.421c-0.103,0.924,0.26,2.294-0.291,4.017
			c-0.27,1.805-0.995,3.86-2.158,6.122c-1.235,2.2-3.041,4.482-5.551,6.455c-5.075,3.612-13.022,6.393-21.096,2.47
			c-3.757-1.889-7.067-5.189-8.781-9.371c-0.829-2.106-1.296-4.327-1.389-6.61c-0.032-1.619,0.144-2.138,0.208-3.259
			c0.31-1.183,0.633-2.542,1.131-3.632c2.003-4.317,6.019-7.575,10.553-8.654c2.189-0.539,4.732-0.582,6.735,0
			c2.656,0.623,4.389,1.972,6.07,3.528c3.041,3.28,4.307,8.218,2.761,11.851c-1.421,3.87-5.146,6.932-8.653,6.786
			c-0.541,0.021-0.594,0.208-1.528,0.083l-1.048-0.271c-0.694-0.217-1.318-0.166-2.084-0.798c-0.728-0.488-1.432-1.007-1.992-1.526
			c-0.384-0.643-0.748-1.266-1.111-1.868c-0.694-1.235-0.571-2.449-0.727-3.819c0.363-0.996,0.343-1.93,1.1-2.74
			c0.541-0.893,1.184-1.411,1.869-1.681c0.611-0.395,1.151-0.591,1.66-0.571c0.933-0.093,1.421-0.146,1.421-0.146
			s-0.467,0.156-1.35,0.427c-0.788,0.197-2.086,1.079-2.657,2.397c-0.507,0.488-0.424,1.629-0.601,2.604
			c0.374,0.592,0.321,1.868,1.027,2.595l0.976,1.214c0.436,0.249,0.86,0.435,1.244,0.706c0.581,0.363,3.052,0.903,3.466,0.415
			l1.774-0.446l1.515-1.131c0.624-0.302,0.821-0.862,1.09-1.318c0.238-0.52,0.788-0.664,0.809-1.682
			c0.976-2.865-0.395-5.728-2.283-7.793c-1.048-0.893-2.492-1.774-3.601-1.951c-1.691-0.384-3.092-0.228-4.66,0.114
			c-3.02,0.768-5.645,2.999-6.942,5.863c-0.322,0.685-0.445,1.276-0.726,1.961c-0.073,0.84-0.302,2.283-0.239,2.615
			c0.052,1.67,0.363,3.278,0.934,4.815c1.225,3.03,3.446,5.624,6.215,7.16c2.502,1.401,5.905,2.346,8.966,1.847
			c3.092-0.146,5.854-1.318,8.25-2.636c2.272-1.557,4.161-3.269,5.594-5.085c1.348-1.868,2.302-3.631,2.801-5.229
			c0.747-1.526,0.747-2.989,1.017-3.86C874.585,474.681,874.679,474.204,874.679,474.204z"/>
	</g>
	<g opacity="0.5">
		<path fill="#522908" d="M959.855,509.621c0,0,0,0.498,0,1.422c-0.114,0.934,0.26,2.303-0.301,4.026
			c-0.27,1.806-0.997,3.86-2.158,6.112c-1.235,2.2-3.03,4.493-5.552,6.464c-5.074,3.612-13.023,6.393-21.096,2.46
			c-3.756-1.9-7.068-5.178-8.78-9.371c-0.83-2.106-1.297-4.317-1.391-6.61c-0.03-1.619,0.146-2.138,0.208-3.258
			c0.312-1.184,0.632-2.542,1.131-3.633c2.003-4.328,6.02-7.575,10.554-8.654c2.189-0.529,4.731-0.581,6.735-0.01
			c2.657,0.643,4.388,1.982,6.08,3.549c3.03,3.269,4.297,8.208,2.75,11.851c-1.422,3.86-5.136,6.932-8.643,6.766
			c-0.55,0.031-0.603,0.218-1.537,0.094l-1.048-0.26c-0.695-0.228-1.318-0.177-2.085-0.809c-0.727-0.499-1.421-0.996-1.992-1.516
			c-0.384-0.643-0.747-1.265-1.1-1.867c-0.695-1.246-0.581-2.449-0.728-3.818c0.354-0.997,0.333-1.931,1.101-2.75
			c0.54-0.882,1.171-1.421,1.868-1.67c0.602-0.395,1.142-0.602,1.65-0.582c0.934-0.083,1.433-0.146,1.433-0.146
			s-0.478,0.146-1.36,0.426c-0.789,0.197-2.086,1.089-2.656,2.397c-0.51,0.487-0.416,1.629-0.603,2.615
			c0.374,0.581,0.333,1.868,1.027,2.583l0.977,1.213c0.435,0.25,0.861,0.437,1.245,0.707c0.591,0.352,3.05,0.913,3.465,0.415
			l1.786-0.436l1.504-1.142c0.623-0.301,0.83-0.851,1.088-1.317c0.24-0.529,0.79-0.654,0.811-1.682
			c0.974-2.854-0.395-5.717-2.283-7.792c-1.038-0.894-2.492-1.765-3.601-1.951c-1.691-0.384-3.093-0.229-4.66,0.113
			c-3.02,0.779-5.645,3-6.943,5.864c-0.32,0.686-0.437,1.287-0.726,1.972c-0.072,0.83-0.301,2.283-0.229,2.615
			c0.042,1.661,0.354,3.269,0.925,4.815c1.224,3.031,3.444,5.624,6.215,7.161c2.5,1.391,5.905,2.335,8.965,1.846
			c3.093-0.145,5.854-1.328,8.25-2.636c2.272-1.556,4.161-3.279,5.594-5.085c1.349-1.878,2.304-3.642,2.802-5.251
			c0.747-1.515,0.757-2.967,1.017-3.839C959.752,510.11,959.855,509.621,959.855,509.621z"/>
	</g>
</g>
<g>
	<path fill="#A5A8AC" d="M1057.58,596.922c-23.901,0-43.275,20.078-43.275,44.871v316.29c0,24.776,19.374,44.863,43.275,44.863
		h107.633V596.922H1057.58L1057.58,596.922z"/>
	<path fill="#7E8185" d="M1272.848,596.922h-107.635v406.024h107.635c23.891,0,43.275-20.087,43.275-44.863v-316.29
		C1316.123,617,1296.738,596.922,1272.848,596.922L1272.848,596.922z"/>
	<path fill="#FFFFFF" d="M1287.988,697.531c0,23.896-18.396,43.271-41.093,43.271h-163.362c-22.699,0-41.104-19.375-41.104-43.271
		v-22.72c0-23.897,18.404-43.271,41.104-43.271h163.362c22.696,0,41.093,19.374,41.093,43.271V697.531L1287.988,697.531z"/>
	<path fill="#FFFFFF" d="M1105.896,797.612c0,14.444-13.888,26.154-31.012,26.154h-1.443c-17.132,0-31.011-11.71-31.011-26.154l0,0
		c0-14.454,13.879-26.16,31.011-26.16h1.443C1092.008,771.451,1105.896,783.157,1105.896,797.612L1105.896,797.612L1105.896,797.612
		z"/>
	<path fill="#FFFFFF" d="M1196.938,797.612c0,14.444-13.869,26.154-31.002,26.154h-1.452c-17.115,0-31.003-11.71-31.003-26.154l0,0
		c0-14.454,13.888-26.16,31.003-26.16h1.452C1183.068,771.451,1196.938,783.157,1196.938,797.612L1196.938,797.612L1196.938,797.612
		z"/>
	<path fill="#FFFFFF" d="M1287.988,797.612c0,14.444-13.878,26.154-31.012,26.154h-1.434c-17.134,0-31.012-11.71-31.012-26.154l0,0
		c0-14.454,13.878-26.16,31.012-26.16h1.434C1274.11,771.451,1287.988,783.157,1287.988,797.612L1287.988,797.612L1287.988,797.612z
		"/>
	<path fill="#FFFFFF" d="M1105.896,870.614c0,14.441-13.888,26.15-31.012,26.15h-1.443c-17.132,0-31.011-11.709-31.011-26.15l0,0
		c0-14.452,13.879-26.15,31.011-26.15h1.443C1092.008,844.463,1105.896,856.161,1105.896,870.614L1105.896,870.614L1105.896,870.614
		z"/>
	<path fill="#FFFFFF" d="M1196.938,870.614c0,14.441-13.869,26.15-31.002,26.15h-1.452c-17.115,0-31.003-11.709-31.003-26.15l0,0
		c0-14.452,13.888-26.15,31.003-26.15h1.452C1183.068,844.463,1196.938,856.161,1196.938,870.614L1196.938,870.614L1196.938,870.614
		z"/>
	<path fill="#FFFFFF" d="M1287.988,870.614c0,14.441-13.878,26.15-31.012,26.15h-1.434c-17.134,0-31.012-11.709-31.012-26.15l0,0
		c0-14.452,13.878-26.15,31.012-26.15h1.434C1274.11,844.463,1287.988,856.161,1287.988,870.614L1287.988,870.614L1287.988,870.614z
		"/>
	<path fill="#F15D22" d="M1105.896,943.613c0,14.45-13.888,26.158-31.012,26.158h-1.443c-17.132,0-31.011-11.708-31.011-26.158l0,0
		c0-14.446,13.879-26.15,31.011-26.15h1.443C1092.008,917.462,1105.896,929.166,1105.896,943.613L1105.896,943.613L1105.896,943.613
		z"/>
	<path fill="#FFFFFF" d="M1196.938,943.613c0,14.45-13.869,26.158-31.002,26.158h-1.452c-17.115,0-31.003-11.708-31.003-26.158l0,0
		c0-14.446,13.888-26.15,31.003-26.15h1.452C1183.068,917.462,1196.938,929.166,1196.938,943.613L1196.938,943.613L1196.938,943.613
		z"/>
	<path fill="#FFFFFF" d="M1287.988,943.613c0,14.45-13.878,26.158-31.012,26.158h-1.434c-17.134,0-31.012-11.708-31.012-26.158l0,0
		c0-14.446,13.878-26.15,31.012-26.15h1.434C1274.11,917.462,1287.988,929.166,1287.988,943.613L1287.988,943.613L1287.988,943.613z
		"/>
	<path fill="#01A8DB" d="M1255.285,692.875c0,9.121-7.394,16.511-16.515,16.511c-9.112,0-16.507-7.39-16.507-16.511v-13.418
		c0-9.117,7.395-16.503,16.507-16.503c9.121,0,16.515,7.386,16.515,16.503V692.875L1255.285,692.875z M1238.771,647.768
		c-15.081,0-27.302,12.223-27.302,27.3v22.201c0,15.081,12.221,27.3,27.302,27.3c15.089,0,27.31-12.219,27.31-27.3v-22.201
		C1266.08,659.99,1253.859,647.768,1238.771,647.768L1238.771,647.768z"/>
</g>
</svg>
